<?xml version="1.0" encoding="UTF-8" standalone="no"?>
<svg xmlns:dc="http://purl.org/dc/elements/1.1/" xmlns:cc="http://creativecommons.org/ns#" xmlns:rdf="http://www.w3.org/1999/02/22-rdf-syntax-ns#" xmlns:svg="http://www.w3.org/2000/svg" xmlns="http://www.w3.org/2000/svg" xmlns:sodipodi="http://sodipodi.sourceforge.net/DTD/sodipodi-0.dtd" xmlns:inkscape="http://www.inkscape.org/namespaces/inkscape" id="Capa_1" enable-background="new 0 0 512 512" height="1000" viewBox="0 0 1000 1000" width="1000" version="1.1" sodipodi:docname="power_on_waiting.svg" inkscape:version="1.0.1 (3bc2e813f5, 2020-09-07)">
<sodipodi:namedview pagecolor="#ffffff" bordercolor="#666666" borderopacity="1" objecttolerance="10" gridtolerance="10" guidetolerance="10" inkscape:pageopacity="0" inkscape:pageshadow="2" inkscape:window-width="1920" inkscape:window-height="1053" id="namedview44" showgrid="false" inkscape:zoom="0.74826" inkscape:cx="559.51" inkscape:cy="537.14" inkscape:window-x="0" inkscape:window-y="-10" inkscape:window-maximized="1" inkscape:current-layer="Capa_1" />
<metadata id="metadata15">
<rdf:RDF>
<cc:Work rdf:about="">
<dc:format>image/svg+xml</dc:format>
<dc:type rdf:resource="http://purl.org/dc/dcmitype/StillImage" />
<dc:title></dc:title>
</cc:Work>
</rdf:RDF>
</metadata>
<defs id="defs13" />
<g id="g873" transform="matrix(27.821,0,0,27.822,-1.185,-1.509)">
<circle style="opacity:0.99921;fill:#ffc000;stroke-width:3.32173;stroke-linecap:square" id="path13" cx="18.036" cy="17.958" r="16.266" />
<g id="g90">
<path style="opacity:0.99921;fill:none;stroke:#000000;stroke-width:2.77331;stroke-linecap:round" d="M 34.256,18.042 A 16.226,16.226 0 0 1 18.03,34.268 A 16.226,16.226 0 0 1 1.8037,18.042 A 16.226,16.226 0 0 1 18.03,1.8157 A 16.226,16.226 0 0 1 34.256,18.042 Z" id="path1414" />
<path style="opacity:0.99921;fill:none;stroke:#000000;stroke-width:2.77331;stroke-linecap:round" d="M 18.03,6.8622 V 12.596" id="path1412" />
<path style="opacity:0.99921;fill:none;stroke:#000000;stroke-width:2.773;stroke-linecap:round" d="M 22.186,8.7487 A 9.7578,9.7578 0 0 1 27.561,19.668 A 9.7578,9.7578 0 0 1 18.108,27.335 A 9.7578,9.7578 0 0 1 8.5336,19.821 A 9.7578,9.7578 0 0 1 13.732,8.8168" id="path17-4" />
</g>
</g>
</svg>
